<svg width="32" height="32" viewBox="0 0 32 32" fill="none" xmlns="http://www.w3.org/2000/svg">
<path d="M2 16.8807C2 15.8813 2.88631 15.1064 3.8535 15.3583C4.63919 15.563 5.41337 15.8278 6.16992 16.1528C8.74818 17.2603 11.0519 19.0294 12.8756 21.3176C14.6996 23.6061 15.9861 26.3433 16.616 29.2955C16.6941 29.6616 16.4081 30 16.0338 30H11.8824C6.42448 30 2 25.5755 2 20.1176V16.8807ZM12.6855 2C13.6037 2 14.3365 2.75236 14.4132 3.66733C14.467 4.31015 14.557 4.95103 14.6835 5.58686C15.2225 8.29682 16.406 10.8357 18.1328 12.9833C19.8596 15.1309 22.0788 16.8234 24.5996 17.9141C26.0509 18.5419 27.5771 18.9587 29.1328 19.1577C29.6205 19.2201 30 19.6259 30 20.1176C30 25.5755 25.5755 30 20.1176 30C20.1015 30 20.0877 29.9882 20.0853 29.9722C20.0161 29.5158 19.9343 29.061 19.8378 28.6087C19.1042 25.1701 17.6017 21.9622 15.4515 19.2644C13.301 16.5662 10.5642 14.4564 7.47036 13.1273C6.17989 12.573 4.84441 12.162 3.48514 11.8979C2.65034 11.7357 2.00104 11.0146 2.14679 10.1768C2.95488 5.53172 7.00611 2 11.8824 2H12.6855ZM20.1176 2C25.5755 2 30 6.42448 30 11.8824V14.1296C30 15.1002 29.1609 15.8687 28.2153 15.6499C27.4281 15.4677 26.6558 15.2144 25.9081 14.891C23.881 14.014 22.0929 12.6514 20.6999 10.9189C19.3069 9.18631 18.3508 7.13589 17.9149 4.94428C17.8275 4.50478 17.7616 4.06227 17.7171 3.61834C17.6275 2.72354 18.3709 2 19.2701 2H20.1176Z" fill="#6180F9"/>
</svg>
